<svg xmlns="http://www.w3.org/2000/svg" id="export" class="graph" preserveAspectRatio="xMidYMid meet" style="position: absolute; margin: 0px;" width="127" height="994"><rect id="background" fill="#fff" pointer-events="all" width="127" height="994"/><g id="origin" transform="translate(5.737109375, 5.737109375) scale(1)"><g id="clusters" class="clusters"/><g id="edge-paths" class="edge-paths"><defs><marker id="arrowhead-vee" viewBox="0 0 10 10" refX="9" refY="5" markerUnits="strokeWidth" markerWidth="8" markerHeight="6" orient="auto" style="fill: rgb(0, 0, 0);"><path d="M 0 0 L 10 5 L 0 10 L 4 5 z" style="stroke-width: 1; stroke-dasharray: 1, 0;"/></marker></defs><path class="edge-path" d="M56.7734375,23L56.7734375,26.666666666666668C56.7734375,30.333333333333332,56.7734375,37.666666666666664,56.7734375,45C56.7734375,52.333333333333336,56.7734375,59.666666666666664,56.7734375,63.333333333333336L56.7734375,67" marker-end="url(#arrowhead-vee)" id="edge-input" style="stroke: rgb(0, 0, 0); stroke-width: 1px; fill: none;"/><path class="edge-path" d="M56.7734375,124L56.7734375,125.66666666666667C56.7734375,127.33333333333333,56.7734375,130.66666666666666,56.7734375,134C56.7734375,137.33333333333334,56.7734375,140.66666666666666,56.7734375,142.33333333333334L56.7734375,144" marker-end="url(#arrowhead-vee)" id="edge-conv2d_1" style="stroke: rgb(0, 0, 0); stroke-width: 1px; fill: none;"/><path class="edge-path" d="M56.7734375,167L56.7734375,168.66666666666666C56.7734375,170.33333333333334,56.7734375,173.66666666666666,56.7734375,177C56.7734375,180.33333333333334,56.7734375,183.66666666666666,56.7734375,185.33333333333334L56.7734375,187" marker-end="url(#arrowhead-vee)" id="edge-max_pooling2d_1" style="stroke: rgb(0, 0, 0); stroke-width: 1px; fill: none;"/><path class="edge-path" d="M56.7734375,210L56.7734375,211.66666666666666C56.7734375,213.33333333333334,56.7734375,216.66666666666666,56.7734375,220C56.7734375,223.33333333333334,56.7734375,226.66666666666666,56.7734375,228.33333333333334L56.7734375,230" marker-end="url(#arrowhead-vee)" id="edge-dropout_1" style="stroke: rgb(0, 0, 0); stroke-width: 1px; fill: none;"/><path class="edge-path" d="M56.7734375,287.00000381469727L56.7734375,288.66667048136395C56.7734375,290.3333371480306,56.7734375,293.66667048136395,56.7734375,297.00000381469727C56.7734375,300.3333371480306,56.7734375,303.66667048136395,56.7734375,305.3333371480306L56.7734375,307.00000381469727" marker-end="url(#arrowhead-vee)" id="edge-conv2d_2" style="stroke: rgb(0, 0, 0); stroke-width: 1px; fill: none;"/><path class="edge-path" d="M56.7734375,330.00000381469727L56.7734375,331.66667048136395C56.7734375,333.3333371480306,56.7734375,336.66667048136395,56.7734375,340.00000381469727C56.7734375,343.3333371480306,56.7734375,346.66667048136395,56.7734375,348.3333371480306L56.7734375,350.00000381469727" marker-end="url(#arrowhead-vee)" id="edge-max_pooling2d_2" style="stroke: rgb(0, 0, 0); stroke-width: 1px; fill: none;"/><path class="edge-path" d="M56.7734375,373.00000381469727L56.7734375,374.66667048136395C56.7734375,376.3333371480306,56.7734375,379.66667048136395,56.7734375,383.00000381469727C56.7734375,386.3333371480306,56.7734375,389.66667048136395,56.7734375,391.3333371480306L56.7734375,393.00000381469727" marker-end="url(#arrowhead-vee)" id="edge-dropout_2" style="stroke: rgb(0, 0, 0); stroke-width: 1px; fill: none;"/><path class="edge-path" d="M56.7734375,450.00000762939453L56.7734375,451.6666742960612C56.7734375,453.33334096272785,56.7734375,456.6666742960612,56.7734375,460.00000762939453C56.7734375,463.33334096272785,56.7734375,466.6666742960612,56.7734375,468.33334096272785L56.7734375,470.00000762939453" marker-end="url(#arrowhead-vee)" id="edge-conv2d_3" style="stroke: rgb(0, 0, 0); stroke-width: 1px; fill: none;"/><path class="edge-path" d="M56.7734375,493.00000762939453L56.7734375,494.6666742960612C56.7734375,496.33334096272785,56.7734375,499.6666742960612,56.7734375,503.00000762939453C56.7734375,506.33334096272785,56.7734375,509.6666742960612,56.7734375,511.33334096272785L56.7734375,513.0000076293945" marker-end="url(#arrowhead-vee)" id="edge-max_pooling2d_3" style="stroke: rgb(0, 0, 0); stroke-width: 1px; fill: none;"/><path class="edge-path" d="M56.7734375,536.0000076293945L56.7734375,537.6666742960612C56.7734375,539.3333409627279,56.7734375,542.6666742960612,56.7734375,546.0000076293945C56.7734375,549.3333409627279,56.7734375,552.6666742960612,56.7734375,554.3333409627279L56.7734375,556.0000076293945" marker-end="url(#arrowhead-vee)" id="edge-dropout_3" style="stroke: rgb(0, 0, 0); stroke-width: 1px; fill: none;"/><path class="edge-path" d="M56.7734375,613.0000114440918L56.7734375,614.6666781107584C56.7734375,616.3333447774252,56.7734375,619.6666781107584,56.7734375,623.0000114440918C56.7734375,626.3333447774252,56.7734375,629.6666781107584,56.7734375,631.3333447774252L56.7734375,633.0000114440918" marker-end="url(#arrowhead-vee)" id="edge-conv2d_4" style="stroke: rgb(0, 0, 0); stroke-width: 1px; fill: none;"/><path class="edge-path" d="M56.7734375,656.0000114440918L56.7734375,657.6666781107584C56.7734375,659.3333447774252,56.7734375,662.6666781107584,56.7734375,666.0000114440918C56.7734375,669.3333447774252,56.7734375,672.6666781107584,56.7734375,674.3333447774252L56.7734375,676.0000114440918" marker-end="url(#arrowhead-vee)" id="edge-max_pooling2d_4" style="stroke: rgb(0, 0, 0); stroke-width: 1px; fill: none;"/><path class="edge-path" d="M56.7734375,699.0000114440918L56.7734375,700.6666781107584C56.7734375,702.3333447774252,56.7734375,705.6666781107584,56.7734375,709.0000114440918C56.7734375,712.3333447774252,56.7734375,715.6666781107584,56.7734375,717.3333447774252L56.7734375,719.0000114440918" marker-end="url(#arrowhead-vee)" id="edge-dropout_4" style="stroke: rgb(0, 0, 0); stroke-width: 1px; fill: none;"/><path class="edge-path" d="M56.7734375,742.0000114440918L56.7734375,743.6666781107584C56.7734375,745.3333447774252,56.7734375,748.6666781107584,56.7734375,752.0000114440918C56.7734375,755.3333447774252,56.7734375,758.6666781107584,56.7734375,760.3333447774252L56.7734375,762.0000114440918" marker-end="url(#arrowhead-vee)" id="edge-flatten_1" style="stroke: rgb(0, 0, 0); stroke-width: 1px; fill: none;"/><path class="edge-path" d="M56.7734375,785.0000114440918L56.7734375,786.6666781107584C56.7734375,788.3333447774252,56.7734375,791.6666781107584,56.7734375,795.0000114440918C56.7734375,798.3333447774252,56.7734375,801.6666781107584,56.7734375,803.3333447774252L56.7734375,805.0000114440918" marker-end="url(#arrowhead-vee)" id="edge-dropout_5" style="stroke: rgb(0, 0, 0); stroke-width: 1px; fill: none;"/><path class="edge-path" d="M56.7734375,862.0000114440918L56.7734375,863.6666781107584C56.7734375,865.3333447774252,56.7734375,868.6666781107584,56.7734375,872.0000114440918C56.7734375,875.3333447774252,56.7734375,878.6666781107584,56.7734375,880.3333447774252L56.7734375,882.0000114440918" marker-end="url(#arrowhead-vee)" id="edge-dense_1" style="stroke: rgb(0, 0, 0); stroke-width: 1px; fill: none;"/><path class="edge-path" d="M56.7734375,939.0000114440918L56.7734375,940.6666781107584C56.7734375,942.3333447774252,56.7734375,945.6666781107584,56.7734375,949.0000114440918C56.7734375,952.3333447774252,56.7734375,955.6666781107584,56.7734375,957.3333447774252L56.7734375,959.0000114440918" marker-end="url(#arrowhead-vee)" id="edge-dense_2" style="stroke: rgb(0, 0, 0); stroke-width: 1px; fill: none;"/></g><g id="edge-labels" class="edge-labels"><g class="edge-label" transform="translate(87.7578125,45)" style="opacity: 1;"><g transform="translate(-25.984375,-7)"><text style="font-family: -apple-system, BlinkMacSystemFont, &quot;Segoe WPC&quot;, &quot;Segoe UI&quot;, Ubuntu, &quot;Droid Sans&quot;, sans-serif; font-size: 10px;"><tspan xml:space="preserve" dy="1em" x="1">?×28×28×1</tspan></text></g></g></g><g id="nodes" class="nodes"><g id="node-conv2d_1" class="node" transform="translate(56.7734375,95.5)" style="opacity: 1;"><g transform="translate(-50,-28.5)"><g><g class="node-item node-item-operator node-item-operator-layer" transform="translate(0,0)"><path d="M5,0h90a5,5 0 0 1 5,5v18a0,0 0 0 1 0,0h-100a0,0 0 0 1 0,0v-18a5,5 0 0 1 5,-5z" style="stroke: rgb(0, 0, 0); fill: rgb(51, 85, 136); stroke-width: 0;"/><text x="6" y="16" style="font-family: -apple-system, BlinkMacSystemFont, &quot;Segoe WPC&quot;, &quot;Segoe UI&quot;, Ubuntu, &quot;Droid Sans&quot;, sans-serif; font-size: 11px; text-rendering: geometricprecision; fill: rgb(255, 255, 255);">Conv2D</text><title>conv2d_1</title></g><g class="node-attribute" transform="translate(0,23)"><path d="M0,0h100a0,0 0 0 1 0,0v29a5,5 0 0 1 -5,5h-90a5,5 0 0 1 -5,-5v-29a0,0 0 0 1 0,0z" style="stroke: rgb(0, 0, 0); fill: rgb(255, 255, 255); stroke-width: 0;"/><text id="initializer-conv2d_1/kernel:0" xml:space="preserve" x="6" y="14" style="font-family: -apple-system, BlinkMacSystemFont, &quot;Segoe WPC&quot;, &quot;Segoe UI&quot;, Ubuntu, &quot;Droid Sans&quot;, sans-serif; font-size: 9px; font-weight: normal; text-rendering: geometricprecision;"><title>float32[3,3,1,32]</title><tspan style="font-weight: bold;">kernel</tspan><tspan>〈3×3×1×32〉</tspan></text><text id="initializer-conv2d_1/bias:0" xml:space="preserve" x="6" y="28" style="font-family: -apple-system, BlinkMacSystemFont, &quot;Segoe WPC&quot;, &quot;Segoe UI&quot;, Ubuntu, &quot;Droid Sans&quot;, sans-serif; font-size: 9px; font-weight: normal; text-rendering: geometricprecision;"><title>float32[32]</title><tspan style="font-weight: bold;">bias</tspan><tspan>〈32〉</tspan></text><line class="node" x1="0" x2="100" y1="0" y2="0" style="stroke: rgb(51, 51, 51); fill: none; stroke-width: 1px;"/></g><path class="node border" d="M5,0h90a5,5 0 0 1 5,5v47a5,5 0 0 1 -5,5h-90a5,5 0 0 1 -5,-5v-47a5,5 0 0 1 5,-5z" style="stroke: rgb(51, 51, 51); fill: none; stroke-width: 1px;"/></g></g></g><g id="node-max_pooling2d_1" class="node" transform="translate(56.7734375,155.5)" style="opacity: 1;"><g transform="translate(-42.5703125,-11.5)"><g><g class="node-item node-item-operator node-item-operator-pool" transform="translate(0,0)"><path d="M5,0h75.140625a5,5 0 0 1 5,5v13a5,5 0 0 1 -5,5h-75.140625a5,5 0 0 1 -5,-5v-13a5,5 0 0 1 5,-5z" style="stroke: rgb(0, 0, 0); fill: rgb(51, 85, 51); stroke-width: 0;"/><text x="6" y="16" style="font-family: -apple-system, BlinkMacSystemFont, &quot;Segoe WPC&quot;, &quot;Segoe UI&quot;, Ubuntu, &quot;Droid Sans&quot;, sans-serif; font-size: 11px; text-rendering: geometricprecision; fill: rgb(255, 255, 255);">MaxPooling2D</text><title>max_pooling2d_1</title></g><path class="node border" d="M5,0h75.140625a5,5 0 0 1 5,5v13a5,5 0 0 1 -5,5h-75.140625a5,5 0 0 1 -5,-5v-13a5,5 0 0 1 5,-5z" style="stroke: rgb(51, 51, 51); fill: none; stroke-width: 1px;"/></g></g></g><g id="node-dropout_1" class="node" transform="translate(56.7734375,198.5)" style="opacity: 1;"><g transform="translate(-27.562501907348633,-11.5)"><g><g class="node-item node-item-operator node-item-operator-dropout" transform="translate(0,0)"><path d="M5,0h45.125a5,5 0 0 1 5,5v13a5,5 0 0 1 -5,5h-45.125a5,5 0 0 1 -5,-5v-13a5,5 0 0 1 5,-5z" style="stroke: rgb(0, 0, 0); fill: rgb(69, 71, 112); stroke-width: 0;"/><text x="6" y="16" style="font-family: -apple-system, BlinkMacSystemFont, &quot;Segoe WPC&quot;, &quot;Segoe UI&quot;, Ubuntu, &quot;Droid Sans&quot;, sans-serif; font-size: 11px; text-rendering: geometricprecision; fill: rgb(255, 255, 255);">Dropout</text><title>dropout_1</title></g><path class="node border" d="M5,0h45.125a5,5 0 0 1 5,5v13a5,5 0 0 1 -5,5h-45.125a5,5 0 0 1 -5,-5v-13a5,5 0 0 1 5,-5z" style="stroke: rgb(51, 51, 51); fill: none; stroke-width: 1px;"/></g></g></g><g id="node-conv2d_2" class="node" transform="translate(56.7734375,258.50000190734863)" style="opacity: 1;"><g transform="translate(-54.343753814697266,-28.500001907348633)"><g><g class="node-item node-item-operator node-item-operator-layer" transform="translate(0,0)"><path d="M5,0h98.6875a5,5 0 0 1 5,5v18a0,0 0 0 1 0,0h-108.6875a0,0 0 0 1 0,0v-18a5,5 0 0 1 5,-5z" style="stroke: rgb(0, 0, 0); fill: rgb(51, 85, 136); stroke-width: 0;"/><text x="6" y="16" style="font-family: -apple-system, BlinkMacSystemFont, &quot;Segoe WPC&quot;, &quot;Segoe UI&quot;, Ubuntu, &quot;Droid Sans&quot;, sans-serif; font-size: 11px; text-rendering: geometricprecision; fill: rgb(255, 255, 255);">Conv2D</text><title>conv2d_2</title></g><g class="node-attribute" transform="translate(0,23)"><path d="M0,0h108.6875a0,0 0 0 1 0,0v29a5,5 0 0 1 -5,5h-98.6875a5,5 0 0 1 -5,-5v-29a0,0 0 0 1 0,0z" style="stroke: rgb(0, 0, 0); fill: rgb(255, 255, 255); stroke-width: 0;"/><text id="initializer-conv2d_2/kernel:0" xml:space="preserve" x="6" y="14" style="font-family: -apple-system, BlinkMacSystemFont, &quot;Segoe WPC&quot;, &quot;Segoe UI&quot;, Ubuntu, &quot;Droid Sans&quot;, sans-serif; font-size: 9px; font-weight: normal; text-rendering: geometricprecision;"><title>float32[3,3,32,256]</title><tspan style="font-weight: bold;">kernel</tspan><tspan>〈3×3×32×256〉</tspan></text><text id="initializer-conv2d_2/bias:0" xml:space="preserve" x="6" y="28" style="font-family: -apple-system, BlinkMacSystemFont, &quot;Segoe WPC&quot;, &quot;Segoe UI&quot;, Ubuntu, &quot;Droid Sans&quot;, sans-serif; font-size: 9px; font-weight: normal; text-rendering: geometricprecision;"><title>float32[256]</title><tspan style="font-weight: bold;">bias</tspan><tspan>〈256〉</tspan></text><line class="node" x1="0" x2="108.6875" y1="0" y2="0" style="stroke: rgb(51, 51, 51); fill: none; stroke-width: 1px;"/></g><path class="node border" d="M5,0h98.6875a5,5 0 0 1 5,5v47a5,5 0 0 1 -5,5h-98.6875a5,5 0 0 1 -5,-5v-47a5,5 0 0 1 5,-5z" style="stroke: rgb(51, 51, 51); fill: none; stroke-width: 1px;"/></g></g></g><g id="node-max_pooling2d_2" class="node" transform="translate(56.7734375,318.50000381469727)" style="opacity: 1;"><g transform="translate(-42.5703125,-11.5)"><g><g class="node-item node-item-operator node-item-operator-pool" transform="translate(0,0)"><path d="M5,0h75.140625a5,5 0 0 1 5,5v13a5,5 0 0 1 -5,5h-75.140625a5,5 0 0 1 -5,-5v-13a5,5 0 0 1 5,-5z" style="stroke: rgb(0, 0, 0); fill: rgb(51, 85, 51); stroke-width: 0;"/><text x="6" y="16" style="font-family: -apple-system, BlinkMacSystemFont, &quot;Segoe WPC&quot;, &quot;Segoe UI&quot;, Ubuntu, &quot;Droid Sans&quot;, sans-serif; font-size: 11px; text-rendering: geometricprecision; fill: rgb(255, 255, 255);">MaxPooling2D</text><title>max_pooling2d_2</title></g><path class="node border" d="M5,0h75.140625a5,5 0 0 1 5,5v13a5,5 0 0 1 -5,5h-75.140625a5,5 0 0 1 -5,-5v-13a5,5 0 0 1 5,-5z" style="stroke: rgb(51, 51, 51); fill: none; stroke-width: 1px;"/></g></g></g><g id="node-dropout_2" class="node" transform="translate(56.7734375,361.50000381469727)" style="opacity: 1;"><g transform="translate(-27.562501907348633,-11.5)"><g><g class="node-item node-item-operator node-item-operator-dropout" transform="translate(0,0)"><path d="M5,0h45.125a5,5 0 0 1 5,5v13a5,5 0 0 1 -5,5h-45.125a5,5 0 0 1 -5,-5v-13a5,5 0 0 1 5,-5z" style="stroke: rgb(0, 0, 0); fill: rgb(69, 71, 112); stroke-width: 0;"/><text x="6" y="16" style="font-family: -apple-system, BlinkMacSystemFont, &quot;Segoe WPC&quot;, &quot;Segoe UI&quot;, Ubuntu, &quot;Droid Sans&quot;, sans-serif; font-size: 11px; text-rendering: geometricprecision; fill: rgb(255, 255, 255);">Dropout</text><title>dropout_2</title></g><path class="node border" d="M5,0h45.125a5,5 0 0 1 5,5v13a5,5 0 0 1 -5,5h-45.125a5,5 0 0 1 -5,-5v-13a5,5 0 0 1 5,-5z" style="stroke: rgb(51, 51, 51); fill: none; stroke-width: 1px;"/></g></g></g><g id="node-conv2d_3" class="node" transform="translate(56.7734375,421.5000057220459)" style="opacity: 1;"><g transform="translate(-56.7734375,-28.500001907348633)"><g><g class="node-item node-item-operator node-item-operator-layer" transform="translate(0,0)"><path d="M5,0h103.546875a5,5 0 0 1 5,5v18a0,0 0 0 1 0,0h-113.546875a0,0 0 0 1 0,0v-18a5,5 0 0 1 5,-5z" style="stroke: rgb(0, 0, 0); fill: rgb(51, 85, 136); stroke-width: 0;"/><text x="6" y="16" style="font-family: -apple-system, BlinkMacSystemFont, &quot;Segoe WPC&quot;, &quot;Segoe UI&quot;, Ubuntu, &quot;Droid Sans&quot;, sans-serif; font-size: 11px; text-rendering: geometricprecision; fill: rgb(255, 255, 255);">Conv2D</text><title>conv2d_3</title></g><g class="node-attribute" transform="translate(0,23)"><path d="M0,0h113.546875a0,0 0 0 1 0,0v29a5,5 0 0 1 -5,5h-103.546875a5,5 0 0 1 -5,-5v-29a0,0 0 0 1 0,0z" style="stroke: rgb(0, 0, 0); fill: rgb(255, 255, 255); stroke-width: 0;"/><text id="initializer-conv2d_3/kernel:0" xml:space="preserve" x="6" y="14" style="font-family: -apple-system, BlinkMacSystemFont, &quot;Segoe WPC&quot;, &quot;Segoe UI&quot;, Ubuntu, &quot;Droid Sans&quot;, sans-serif; font-size: 9px; font-weight: normal; text-rendering: geometricprecision;"><title>float32[3,3,256,256]</title><tspan style="font-weight: bold;">kernel</tspan><tspan>〈3×3×256×256〉</tspan></text><text id="initializer-conv2d_3/bias:0" xml:space="preserve" x="6" y="28" style="font-family: -apple-system, BlinkMacSystemFont, &quot;Segoe WPC&quot;, &quot;Segoe UI&quot;, Ubuntu, &quot;Droid Sans&quot;, sans-serif; font-size: 9px; font-weight: normal; text-rendering: geometricprecision;"><title>float32[256]</title><tspan style="font-weight: bold;">bias</tspan><tspan>〈256〉</tspan></text><line class="node" x1="0" x2="113.546875" y1="0" y2="0" style="stroke: rgb(51, 51, 51); fill: none; stroke-width: 1px;"/></g><path class="node border" d="M5,0h103.546875a5,5 0 0 1 5,5v47a5,5 0 0 1 -5,5h-103.546875a5,5 0 0 1 -5,-5v-47a5,5 0 0 1 5,-5z" style="stroke: rgb(51, 51, 51); fill: none; stroke-width: 1px;"/></g></g></g><g id="node-max_pooling2d_3" class="node" transform="translate(56.7734375,481.50000762939453)" style="opacity: 1;"><g transform="translate(-42.5703125,-11.5)"><g><g class="node-item node-item-operator node-item-operator-pool" transform="translate(0,0)"><path d="M5,0h75.140625a5,5 0 0 1 5,5v13a5,5 0 0 1 -5,5h-75.140625a5,5 0 0 1 -5,-5v-13a5,5 0 0 1 5,-5z" style="stroke: rgb(0, 0, 0); fill: rgb(51, 85, 51); stroke-width: 0;"/><text x="6" y="16" style="font-family: -apple-system, BlinkMacSystemFont, &quot;Segoe WPC&quot;, &quot;Segoe UI&quot;, Ubuntu, &quot;Droid Sans&quot;, sans-serif; font-size: 11px; text-rendering: geometricprecision; fill: rgb(255, 255, 255);">MaxPooling2D</text><title>max_pooling2d_3</title></g><path class="node border" d="M5,0h75.140625a5,5 0 0 1 5,5v13a5,5 0 0 1 -5,5h-75.140625a5,5 0 0 1 -5,-5v-13a5,5 0 0 1 5,-5z" style="stroke: rgb(51, 51, 51); fill: none; stroke-width: 1px;"/></g></g></g><g id="node-dropout_3" class="node" transform="translate(56.7734375,524.5000076293945)" style="opacity: 1;"><g transform="translate(-27.562501907348633,-11.5)"><g><g class="node-item node-item-operator node-item-operator-dropout" transform="translate(0,0)"><path d="M5,0h45.125a5,5 0 0 1 5,5v13a5,5 0 0 1 -5,5h-45.125a5,5 0 0 1 -5,-5v-13a5,5 0 0 1 5,-5z" style="stroke: rgb(0, 0, 0); fill: rgb(69, 71, 112); stroke-width: 0;"/><text x="6" y="16" style="font-family: -apple-system, BlinkMacSystemFont, &quot;Segoe WPC&quot;, &quot;Segoe UI&quot;, Ubuntu, &quot;Droid Sans&quot;, sans-serif; font-size: 11px; text-rendering: geometricprecision; fill: rgb(255, 255, 255);">Dropout</text><title>dropout_3</title></g><path class="node border" d="M5,0h45.125a5,5 0 0 1 5,5v13a5,5 0 0 1 -5,5h-45.125a5,5 0 0 1 -5,-5v-13a5,5 0 0 1 5,-5z" style="stroke: rgb(51, 51, 51); fill: none; stroke-width: 1px;"/></g></g></g><g id="node-conv2d_4" class="node" transform="translate(56.7734375,584.5000095367432)" style="opacity: 1;"><g transform="translate(-56.7734375,-28.500001907348633)"><g><g class="node-item node-item-operator node-item-operator-layer" transform="translate(0,0)"><path d="M5,0h103.546875a5,5 0 0 1 5,5v18a0,0 0 0 1 0,0h-113.546875a0,0 0 0 1 0,0v-18a5,5 0 0 1 5,-5z" style="stroke: rgb(0, 0, 0); fill: rgb(51, 85, 136); stroke-width: 0;"/><text x="6" y="16" style="font-family: -apple-system, BlinkMacSystemFont, &quot;Segoe WPC&quot;, &quot;Segoe UI&quot;, Ubuntu, &quot;Droid Sans&quot;, sans-serif; font-size: 11px; text-rendering: geometricprecision; fill: rgb(255, 255, 255);">Conv2D</text><title>conv2d_4</title></g><g class="node-attribute" transform="translate(0,23)"><path d="M0,0h113.546875a0,0 0 0 1 0,0v29a5,5 0 0 1 -5,5h-103.546875a5,5 0 0 1 -5,-5v-29a0,0 0 0 1 0,0z" style="stroke: rgb(0, 0, 0); fill: rgb(255, 255, 255); stroke-width: 0;"/><text id="initializer-conv2d_4/kernel:0" xml:space="preserve" x="6" y="14" style="font-family: -apple-system, BlinkMacSystemFont, &quot;Segoe WPC&quot;, &quot;Segoe UI&quot;, Ubuntu, &quot;Droid Sans&quot;, sans-serif; font-size: 9px; font-weight: normal; text-rendering: geometricprecision;"><title>float32[3,3,256,256]</title><tspan style="font-weight: bold;">kernel</tspan><tspan>〈3×3×256×256〉</tspan></text><text id="initializer-conv2d_4/bias:0" xml:space="preserve" x="6" y="28" style="font-family: -apple-system, BlinkMacSystemFont, &quot;Segoe WPC&quot;, &quot;Segoe UI&quot;, Ubuntu, &quot;Droid Sans&quot;, sans-serif; font-size: 9px; font-weight: normal; text-rendering: geometricprecision;"><title>float32[256]</title><tspan style="font-weight: bold;">bias</tspan><tspan>〈256〉</tspan></text><line class="node" x1="0" x2="113.546875" y1="0" y2="0" style="stroke: rgb(51, 51, 51); fill: none; stroke-width: 1px;"/></g><path class="node border" d="M5,0h103.546875a5,5 0 0 1 5,5v47a5,5 0 0 1 -5,5h-103.546875a5,5 0 0 1 -5,-5v-47a5,5 0 0 1 5,-5z" style="stroke: rgb(51, 51, 51); fill: none; stroke-width: 1px;"/></g></g></g><g id="node-max_pooling2d_4" class="node" transform="translate(56.7734375,644.5000114440918)" style="opacity: 1;"><g transform="translate(-42.5703125,-11.5)"><g><g class="node-item node-item-operator node-item-operator-pool" transform="translate(0,0)"><path d="M5,0h75.140625a5,5 0 0 1 5,5v13a5,5 0 0 1 -5,5h-75.140625a5,5 0 0 1 -5,-5v-13a5,5 0 0 1 5,-5z" style="stroke: rgb(0, 0, 0); fill: rgb(51, 85, 51); stroke-width: 0;"/><text x="6" y="16" style="font-family: -apple-system, BlinkMacSystemFont, &quot;Segoe WPC&quot;, &quot;Segoe UI&quot;, Ubuntu, &quot;Droid Sans&quot;, sans-serif; font-size: 11px; text-rendering: geometricprecision; fill: rgb(255, 255, 255);">MaxPooling2D</text><title>max_pooling2d_4</title></g><path class="node border" d="M5,0h75.140625a5,5 0 0 1 5,5v13a5,5 0 0 1 -5,5h-75.140625a5,5 0 0 1 -5,-5v-13a5,5 0 0 1 5,-5z" style="stroke: rgb(51, 51, 51); fill: none; stroke-width: 1px;"/></g></g></g><g id="node-dropout_4" class="node" transform="translate(56.7734375,687.5000114440918)" style="opacity: 1;"><g transform="translate(-27.562501907348633,-11.5)"><g><g class="node-item node-item-operator node-item-operator-dropout" transform="translate(0,0)"><path d="M5,0h45.125a5,5 0 0 1 5,5v13a5,5 0 0 1 -5,5h-45.125a5,5 0 0 1 -5,-5v-13a5,5 0 0 1 5,-5z" style="stroke: rgb(0, 0, 0); fill: rgb(69, 71, 112); stroke-width: 0;"/><text x="6" y="16" style="font-family: -apple-system, BlinkMacSystemFont, &quot;Segoe WPC&quot;, &quot;Segoe UI&quot;, Ubuntu, &quot;Droid Sans&quot;, sans-serif; font-size: 11px; text-rendering: geometricprecision; fill: rgb(255, 255, 255);">Dropout</text><title>dropout_4</title></g><path class="node border" d="M5,0h45.125a5,5 0 0 1 5,5v13a5,5 0 0 1 -5,5h-45.125a5,5 0 0 1 -5,-5v-13a5,5 0 0 1 5,-5z" style="stroke: rgb(51, 51, 51); fill: none; stroke-width: 1px;"/></g></g></g><g id="node-flatten_1" class="node" transform="translate(56.7734375,730.5000114440918)" style="opacity: 1;"><g transform="translate(-23.539064407348633,-11.5)"><g><g class="node-item node-item-operator node-item-operator-shape" transform="translate(0,0)"><path d="M5,0h37.078125a5,5 0 0 1 5,5v13a5,5 0 0 1 -5,5h-37.078125a5,5 0 0 1 -5,-5v-13a5,5 0 0 1 5,-5z" style="stroke: rgb(0, 0, 0); fill: rgb(108, 79, 71); stroke-width: 0;"/><text x="6" y="16" style="font-family: -apple-system, BlinkMacSystemFont, &quot;Segoe WPC&quot;, &quot;Segoe UI&quot;, Ubuntu, &quot;Droid Sans&quot;, sans-serif; font-size: 11px; text-rendering: geometricprecision; fill: rgb(255, 255, 255);">Flatten</text><title>flatten_1</title></g><path class="node border" d="M5,0h37.078125a5,5 0 0 1 5,5v13a5,5 0 0 1 -5,5h-37.078125a5,5 0 0 1 -5,-5v-13a5,5 0 0 1 5,-5z" style="stroke: rgb(51, 51, 51); fill: none; stroke-width: 1px;"/></g></g></g><g id="node-dropout_5" class="node" transform="translate(56.7734375,773.5000114440918)" style="opacity: 1;"><g transform="translate(-27.562501907348633,-11.5)"><g><g class="node-item node-item-operator node-item-operator-dropout" transform="translate(0,0)"><path d="M5,0h45.125a5,5 0 0 1 5,5v13a5,5 0 0 1 -5,5h-45.125a5,5 0 0 1 -5,-5v-13a5,5 0 0 1 5,-5z" style="stroke: rgb(0, 0, 0); fill: rgb(69, 71, 112); stroke-width: 0;"/><text x="6" y="16" style="font-family: -apple-system, BlinkMacSystemFont, &quot;Segoe WPC&quot;, &quot;Segoe UI&quot;, Ubuntu, &quot;Droid Sans&quot;, sans-serif; font-size: 11px; text-rendering: geometricprecision; fill: rgb(255, 255, 255);">Dropout</text><title>dropout_5</title></g><path class="node border" d="M5,0h45.125a5,5 0 0 1 5,5v13a5,5 0 0 1 -5,5h-45.125a5,5 0 0 1 -5,-5v-13a5,5 0 0 1 5,-5z" style="stroke: rgb(51, 51, 51); fill: none; stroke-width: 1px;"/></g></g></g><g id="node-dense_1" class="node" transform="translate(56.7734375,833.5000114440918)" style="opacity: 1;"><g transform="translate(-50,-28.5)"><g><g class="node-item node-item-operator node-item-operator-layer" transform="translate(0,0)"><path d="M5,0h90a5,5 0 0 1 5,5v18a0,0 0 0 1 0,0h-100a0,0 0 0 1 0,0v-18a5,5 0 0 1 5,-5z" style="stroke: rgb(0, 0, 0); fill: rgb(51, 85, 136); stroke-width: 0;"/><text x="6" y="16" style="font-family: -apple-system, BlinkMacSystemFont, &quot;Segoe WPC&quot;, &quot;Segoe UI&quot;, Ubuntu, &quot;Droid Sans&quot;, sans-serif; font-size: 11px; text-rendering: geometricprecision; fill: rgb(255, 255, 255);">Dense</text><title>dense_1</title></g><g class="node-attribute" transform="translate(0,23)"><path d="M0,0h100a0,0 0 0 1 0,0v29a5,5 0 0 1 -5,5h-90a5,5 0 0 1 -5,-5v-29a0,0 0 0 1 0,0z" style="stroke: rgb(0, 0, 0); fill: rgb(255, 255, 255); stroke-width: 0;"/><text id="initializer-dense_1/kernel:0" xml:space="preserve" x="6" y="14" style="font-family: -apple-system, BlinkMacSystemFont, &quot;Segoe WPC&quot;, &quot;Segoe UI&quot;, Ubuntu, &quot;Droid Sans&quot;, sans-serif; font-size: 9px; font-weight: normal; text-rendering: geometricprecision;"><title>float32[256,1024]</title><tspan style="font-weight: bold;">kernel</tspan><tspan>〈256×1024〉</tspan></text><text id="initializer-dense_1/bias:0" xml:space="preserve" x="6" y="28" style="font-family: -apple-system, BlinkMacSystemFont, &quot;Segoe WPC&quot;, &quot;Segoe UI&quot;, Ubuntu, &quot;Droid Sans&quot;, sans-serif; font-size: 9px; font-weight: normal; text-rendering: geometricprecision;"><title>float32[1024]</title><tspan style="font-weight: bold;">bias</tspan><tspan>〈1024〉</tspan></text><line class="node" x1="0" x2="100" y1="0" y2="0" style="stroke: rgb(51, 51, 51); fill: none; stroke-width: 1px;"/></g><path class="node border" d="M5,0h90a5,5 0 0 1 5,5v47a5,5 0 0 1 -5,5h-90a5,5 0 0 1 -5,-5v-47a5,5 0 0 1 5,-5z" style="stroke: rgb(51, 51, 51); fill: none; stroke-width: 1px;"/></g></g></g><g id="node-dense_2" class="node" transform="translate(56.7734375,910.5000114440918)" style="opacity: 1;"><g transform="translate(-50,-28.5)"><g><g class="node-item node-item-operator node-item-operator-layer" transform="translate(0,0)"><path d="M5,0h90a5,5 0 0 1 5,5v18a0,0 0 0 1 0,0h-100a0,0 0 0 1 0,0v-18a5,5 0 0 1 5,-5z" style="stroke: rgb(0, 0, 0); fill: rgb(51, 85, 136); stroke-width: 0;"/><text x="6" y="16" style="font-family: -apple-system, BlinkMacSystemFont, &quot;Segoe WPC&quot;, &quot;Segoe UI&quot;, Ubuntu, &quot;Droid Sans&quot;, sans-serif; font-size: 11px; text-rendering: geometricprecision; fill: rgb(255, 255, 255);">Dense</text><title>dense_2</title></g><g class="node-attribute" transform="translate(0,23)"><path d="M0,0h100a0,0 0 0 1 0,0v29a5,5 0 0 1 -5,5h-90a5,5 0 0 1 -5,-5v-29a0,0 0 0 1 0,0z" style="stroke: rgb(0, 0, 0); fill: rgb(255, 255, 255); stroke-width: 0;"/><text id="initializer-dense_2/kernel:0" xml:space="preserve" x="6" y="14" style="font-family: -apple-system, BlinkMacSystemFont, &quot;Segoe WPC&quot;, &quot;Segoe UI&quot;, Ubuntu, &quot;Droid Sans&quot;, sans-serif; font-size: 9px; font-weight: normal; text-rendering: geometricprecision;"><title>float32[1024,6]</title><tspan style="font-weight: bold;">kernel</tspan><tspan>〈1024×6〉</tspan></text><text id="initializer-dense_2/bias:0" xml:space="preserve" x="6" y="28" style="font-family: -apple-system, BlinkMacSystemFont, &quot;Segoe WPC&quot;, &quot;Segoe UI&quot;, Ubuntu, &quot;Droid Sans&quot;, sans-serif; font-size: 9px; font-weight: normal; text-rendering: geometricprecision;"><title>float32[6]</title><tspan style="font-weight: bold;">bias</tspan><tspan>〈6〉</tspan></text><line class="node" x1="0" x2="100" y1="0" y2="0" style="stroke: rgb(51, 51, 51); fill: none; stroke-width: 1px;"/></g><path class="node border" d="M5,0h90a5,5 0 0 1 5,5v47a5,5 0 0 1 -5,5h-90a5,5 0 0 1 -5,-5v-47a5,5 0 0 1 5,-5z" style="stroke: rgb(51, 51, 51); fill: none; stroke-width: 1px;"/></g></g></g><g class="node graph-input" transform="translate(56.7734375,11.5)" style="opacity: 1;"><g transform="translate(-19.796875,-11.5)"><g><g class="node-item graph-item-input" transform="translate(0,0)"><path d="M5,0h29.59375a5,5 0 0 1 5,5v13a5,5 0 0 1 -5,5h-29.59375a5,5 0 0 1 -5,-5v-13a5,5 0 0 1 5,-5z" style="stroke: rgb(0, 0, 0); fill: rgb(238, 238, 238); stroke-width: 0;"/><text x="6" y="16" style="font-family: -apple-system, BlinkMacSystemFont, &quot;Segoe WPC&quot;, &quot;Segoe UI&quot;, Ubuntu, &quot;Droid Sans&quot;, sans-serif; font-size: 11px; text-rendering: geometricprecision;">input</text><title>float32[?,28,28,1]</title></g><path class="node border" d="M5,0h29.59375a5,5 0 0 1 5,5v13a5,5 0 0 1 -5,5h-29.59375a5,5 0 0 1 -5,-5v-13a5,5 0 0 1 5,-5z" style="stroke: rgb(51, 51, 51); fill: none; stroke-width: 1px;"/></g></g></g><g class="node" transform="translate(56.7734375,970.5000114440918)" style="opacity: 1;"><g transform="translate(-26.7265625,-11.5)"><g><g class="node-item graph-item-output" transform="translate(0,0)"><path d="M5,0h43.453125a5,5 0 0 1 5,5v13a5,5 0 0 1 -5,5h-43.453125a5,5 0 0 1 -5,-5v-13a5,5 0 0 1 5,-5z" style="stroke: rgb(0, 0, 0); fill: rgb(238, 238, 238); stroke-width: 0;"/><text x="6" y="16" style="font-family: -apple-system, BlinkMacSystemFont, &quot;Segoe WPC&quot;, &quot;Segoe UI&quot;, Ubuntu, &quot;Droid Sans&quot;, sans-serif; font-size: 11px; text-rendering: geometricprecision;">dense_2</text></g><path class="node border" d="M5,0h43.453125a5,5 0 0 1 5,5v13a5,5 0 0 1 -5,5h-43.453125a5,5 0 0 1 -5,-5v-13a5,5 0 0 1 5,-5z" style="stroke: rgb(51, 51, 51); fill: none; stroke-width: 1px;"/></g></g></g></g></g></svg>